<svg xmlns="http://www.w3.org/2000/svg" viewBox="0 0 600 420">
  <!-- helma s rohy jisté varianty: vlastní kresba zepředu (rohy, čelenka se špičkou, lícnice), zlatý přechod -->
  <defs>
    <linearGradient id="gold" x1="0" y1="0" x2="0" y2="1">
      <stop offset="0" stop-color="#fff1b0"/>
      <stop offset=".35" stop-color="#e9c95a"/>
      <stop offset=".7" stop-color="#c9a227"/>
      <stop offset="1" stop-color="#7a5a12"/>
    </linearGradient>
    <linearGradient id="goldSide" x1="0" y1="0" x2="1" y2="0">
      <stop offset="0" stop-color="#8a6a18"/>
      <stop offset=".5" stop-color="#e9c95a"/>
      <stop offset="1" stop-color="#8a6a18"/>
    </linearGradient>
    <g id="horn">
      <path d="M205 305C150 280 105 225 92 160 82 110 92 55 118 8 116 60 122 115 148 165 170 210 210 245 262 270Z" fill="url(#gold)" stroke="#7a5a12" stroke-width="2" stroke-linejoin="round"/>
      <path d="M232 284C176 258 126 206 114 146 106 100 110 58 117 24" fill="none" stroke="#fff4c8" stroke-opacity=".7" stroke-width="3" stroke-linecap="round"/>
      <g fill="none" stroke="#7a5a12" stroke-width="2" stroke-linecap="round" stroke-opacity=".8">
        <path d="M214 262q-6 16-18 30"/><path d="M186 240q-8 15-22 26"/><path d="M160 212q-10 13-25 21"/>
        <path d="M140 180q-12 10-28 14"/><path d="M127 146q-13 6-30 7"/><path d="M121 110q-12 2-28 0"/><path d="M119 74q-11-2-24-7"/>
      </g>
    </g>
  </defs>
  <use href="#horn"/>
  <use href="#horn" transform="matrix(-1 0 0 1 600 0)"/>
  <path d="M176 312C230 266 370 266 424 312L430 346C370 300 230 300 170 346Z" fill="url(#goldSide)" stroke="#7a5a12" stroke-width="2" stroke-linejoin="round"/>
  <path d="M171 330C164 360 161 386 165 412L204 397C199 376 203 353 212 336Z" fill="url(#gold)" stroke="#7a5a12" stroke-width="2" stroke-linejoin="round"/>
  <path d="M429 330C436 360 439 386 435 412L396 397C401 376 397 353 388 336Z" fill="url(#gold)" stroke="#7a5a12" stroke-width="2" stroke-linejoin="round"/>
  <path d="M300 250L328 300 300 380 272 300Z" fill="url(#gold)" stroke="#7a5a12" stroke-width="2" stroke-linejoin="round"/>
  <path d="M300 262V372" stroke="#fff4c8" stroke-opacity=".6" stroke-width="2"/>
</svg>
